<mxfile host="app.diagrams.net" modified="2023-10-17T22:07:11.605Z" agent="Mozilla/5.0 (Macintosh; Intel Mac OS X 10_15_7) AppleWebKit/605.1.15 (KHTML, like Gecko) Version/16.6 Safari/605.1.15" etag="TJa_YI4FsO3EcKQTudho" version="22.0.4" type="device">
  <diagram name="Page-1" id="bd6bbabYntFXdZzJabgJ">
    <mxGraphModel dx="954" dy="647" grid="1" gridSize="10" guides="1" tooltips="1" connect="1" arrows="1" fold="1" page="1" pageScale="1" pageWidth="827" pageHeight="1169" math="0" shadow="0">
      <root>
        <mxCell id="0" />
        <mxCell id="1" parent="0" />
        <mxCell id="HqXSGw4q4rn_gHDSRf10-6" value="" style="swimlane;startSize=0;" vertex="1" parent="1">
          <mxGeometry x="40" y="40" width="200" height="290" as="geometry" />
        </mxCell>
        <mxCell id="HqXSGw4q4rn_gHDSRf10-7" value="email" style="rounded=0;whiteSpace=wrap;html=1;" vertex="1" parent="HqXSGw4q4rn_gHDSRf10-6">
          <mxGeometry x="50" y="140" width="100" height="20" as="geometry" />
        </mxCell>
        <mxCell id="HqXSGw4q4rn_gHDSRf10-8" value="password" style="rounded=0;whiteSpace=wrap;html=1;" vertex="1" parent="HqXSGw4q4rn_gHDSRf10-6">
          <mxGeometry x="50" y="170" width="100" height="20" as="geometry" />
        </mxCell>
        <mxCell id="HqXSGw4q4rn_gHDSRf10-9" value="Login" style="rounded=1;whiteSpace=wrap;html=1;" vertex="1" parent="HqXSGw4q4rn_gHDSRf10-6">
          <mxGeometry x="80" y="200" width="40" height="20" as="geometry" />
        </mxCell>
        <mxCell id="HqXSGw4q4rn_gHDSRf10-10" value="API CONF" style="ellipse;whiteSpace=wrap;html=1;aspect=fixed;" vertex="1" parent="HqXSGw4q4rn_gHDSRf10-6">
          <mxGeometry x="10" y="240" width="40" height="40" as="geometry" />
        </mxCell>
        <mxCell id="HqXSGw4q4rn_gHDSRf10-21" value="" style="swimlane;startSize=0;" vertex="1" parent="1">
          <mxGeometry x="300" y="40" width="200" height="290" as="geometry" />
        </mxCell>
        <mxCell id="HqXSGw4q4rn_gHDSRf10-61" value="Faturas" style="rounded=1;whiteSpace=wrap;html=1;" vertex="1" parent="HqXSGw4q4rn_gHDSRf10-21">
          <mxGeometry x="40" y="190" width="120" height="60" as="geometry" />
        </mxCell>
        <mxCell id="HqXSGw4q4rn_gHDSRf10-63" value="Favoritos" style="rounded=1;whiteSpace=wrap;html=1;" vertex="1" parent="HqXSGw4q4rn_gHDSRf10-21">
          <mxGeometry x="40" y="110" width="120" height="60" as="geometry" />
        </mxCell>
        <mxCell id="HqXSGw4q4rn_gHDSRf10-65" value="RefeiÃ§ao" style="rounded=1;whiteSpace=wrap;html=1;" vertex="1" parent="HqXSGw4q4rn_gHDSRf10-21">
          <mxGeometry x="40" y="30" width="120" height="60" as="geometry" />
        </mxCell>
        <mxCell id="HqXSGw4q4rn_gHDSRf10-26" value="" style="swimlane;startSize=0;" vertex="1" parent="1">
          <mxGeometry x="560" y="40" width="200" height="300" as="geometry" />
        </mxCell>
        <mxCell id="HqXSGw4q4rn_gHDSRf10-72" value="Prato Q" style="rounded=1;whiteSpace=wrap;html=1;" vertex="1" parent="HqXSGw4q4rn_gHDSRf10-26">
          <mxGeometry x="40" y="200" width="120" height="40" as="geometry" />
        </mxCell>
        <mxCell id="HqXSGw4q4rn_gHDSRf10-73" value="Prato X" style="rounded=1;whiteSpace=wrap;html=1;" vertex="1" parent="HqXSGw4q4rn_gHDSRf10-26">
          <mxGeometry x="40" y="50" width="120" height="40" as="geometry" />
        </mxCell>
        <mxCell id="HqXSGw4q4rn_gHDSRf10-74" value="Prato Y" style="rounded=1;whiteSpace=wrap;html=1;" vertex="1" parent="HqXSGw4q4rn_gHDSRf10-26">
          <mxGeometry x="40" y="100" width="120" height="40" as="geometry" />
        </mxCell>
        <mxCell id="HqXSGw4q4rn_gHDSRf10-75" value="Prato Z" style="rounded=1;whiteSpace=wrap;html=1;" vertex="1" parent="HqXSGw4q4rn_gHDSRf10-26">
          <mxGeometry x="40" y="150" width="120" height="40" as="geometry" />
        </mxCell>
        <mxCell id="HqXSGw4q4rn_gHDSRf10-76" value="Pedir Fatura" style="rounded=1;whiteSpace=wrap;html=1;" vertex="1" parent="HqXSGw4q4rn_gHDSRf10-26">
          <mxGeometry x="120" y="260" width="70" height="20" as="geometry" />
        </mxCell>
        <mxCell id="HqXSGw4q4rn_gHDSRf10-31" value="" style="swimlane;startSize=0;" vertex="1" parent="1">
          <mxGeometry x="40" y="410" width="200" height="290" as="geometry" />
        </mxCell>
        <mxCell id="HqXSGw4q4rn_gHDSRf10-77" value="" style="whiteSpace=wrap;html=1;aspect=fixed;" vertex="1" parent="HqXSGw4q4rn_gHDSRf10-31">
          <mxGeometry x="10" y="10" width="70" height="70" as="geometry" />
        </mxCell>
        <mxCell id="HqXSGw4q4rn_gHDSRf10-78" value="&lt;h1&gt;Heading&lt;/h1&gt;&lt;p&gt;Lorem ipsum dolor sit amet, consectetur adipisicing elit, sed do eiusmod tempor incididunt ut labore et dolore magna aliqua.&lt;/p&gt;" style="text;html=1;strokeColor=none;fillColor=none;spacing=5;spacingTop=-20;whiteSpace=wrap;overflow=hidden;rounded=0;" vertex="1" parent="HqXSGw4q4rn_gHDSRf10-31">
          <mxGeometry x="5" y="90" width="190" height="120" as="geometry" />
        </mxCell>
        <mxCell id="HqXSGw4q4rn_gHDSRf10-79" value="ADD&amp;nbsp;" style="rounded=1;whiteSpace=wrap;html=1;" vertex="1" parent="HqXSGw4q4rn_gHDSRf10-31">
          <mxGeometry x="55" y="220" width="90" height="30" as="geometry" />
        </mxCell>
        <mxCell id="HqXSGw4q4rn_gHDSRf10-80" value="" style="verticalLabelPosition=bottom;verticalAlign=top;html=1;shape=mxgraph.basic.6_point_star" vertex="1" parent="HqXSGw4q4rn_gHDSRf10-31">
          <mxGeometry x="145" y="35" width="25" height="20" as="geometry" />
        </mxCell>
        <mxCell id="HqXSGw4q4rn_gHDSRf10-37" value="" style="swimlane;startSize=0;" vertex="1" parent="1">
          <mxGeometry x="300" y="410" width="200" height="290" as="geometry" />
        </mxCell>
        <mxCell id="HqXSGw4q4rn_gHDSRf10-81" value="Pratos Favoritos" style="swimlane;fontStyle=0;childLayout=stackLayout;horizontal=1;startSize=30;horizontalStack=0;resizeParent=1;resizeParentMax=0;resizeLast=0;collapsible=1;marginBottom=0;whiteSpace=wrap;html=1;" vertex="1" parent="HqXSGw4q4rn_gHDSRf10-37">
          <mxGeometry x="30" y="85" width="140" height="120" as="geometry" />
        </mxCell>
        <mxCell id="HqXSGw4q4rn_gHDSRf10-82" value="Prato X" style="text;strokeColor=none;fillColor=none;align=left;verticalAlign=middle;spacingLeft=4;spacingRight=4;overflow=hidden;points=[[0,0.5],[1,0.5]];portConstraint=eastwest;rotatable=0;whiteSpace=wrap;html=1;" vertex="1" parent="HqXSGw4q4rn_gHDSRf10-81">
          <mxGeometry y="30" width="140" height="30" as="geometry" />
        </mxCell>
        <mxCell id="HqXSGw4q4rn_gHDSRf10-83" value="Prato Y" style="text;strokeColor=none;fillColor=none;align=left;verticalAlign=middle;spacingLeft=4;spacingRight=4;overflow=hidden;points=[[0,0.5],[1,0.5]];portConstraint=eastwest;rotatable=0;whiteSpace=wrap;html=1;" vertex="1" parent="HqXSGw4q4rn_gHDSRf10-81">
          <mxGeometry y="60" width="140" height="30" as="geometry" />
        </mxCell>
        <mxCell id="HqXSGw4q4rn_gHDSRf10-84" value="Prato Z" style="text;strokeColor=none;fillColor=none;align=left;verticalAlign=middle;spacingLeft=4;spacingRight=4;overflow=hidden;points=[[0,0.5],[1,0.5]];portConstraint=eastwest;rotatable=0;whiteSpace=wrap;html=1;" vertex="1" parent="HqXSGw4q4rn_gHDSRf10-81">
          <mxGeometry y="90" width="140" height="30" as="geometry" />
        </mxCell>
        <mxCell id="HqXSGw4q4rn_gHDSRf10-43" value="" style="swimlane;startSize=0;" vertex="1" parent="1">
          <mxGeometry x="560" y="410" width="200" height="290" as="geometry" />
        </mxCell>
        <mxCell id="HqXSGw4q4rn_gHDSRf10-93" value="Fatura" style="swimlane;fontStyle=0;childLayout=stackLayout;horizontal=1;startSize=26;fillColor=none;horizontalStack=0;resizeParent=1;resizeParentMax=0;resizeLast=0;collapsible=1;marginBottom=0;html=1;" vertex="1" parent="HqXSGw4q4rn_gHDSRf10-43">
          <mxGeometry x="30" y="90" width="140" height="104" as="geometry" />
        </mxCell>
        <mxCell id="HqXSGw4q4rn_gHDSRf10-94" value="Item 1" style="text;strokeColor=none;fillColor=none;align=left;verticalAlign=top;spacingLeft=4;spacingRight=4;overflow=hidden;rotatable=0;points=[[0,0.5],[1,0.5]];portConstraint=eastwest;whiteSpace=wrap;html=1;" vertex="1" parent="HqXSGw4q4rn_gHDSRf10-93">
          <mxGeometry y="26" width="140" height="26" as="geometry" />
        </mxCell>
        <mxCell id="HqXSGw4q4rn_gHDSRf10-95" value="Item 2" style="text;strokeColor=none;fillColor=none;align=left;verticalAlign=top;spacingLeft=4;spacingRight=4;overflow=hidden;rotatable=0;points=[[0,0.5],[1,0.5]];portConstraint=eastwest;whiteSpace=wrap;html=1;" vertex="1" parent="HqXSGw4q4rn_gHDSRf10-93">
          <mxGeometry y="52" width="140" height="26" as="geometry" />
        </mxCell>
        <mxCell id="HqXSGw4q4rn_gHDSRf10-96" value="Item 3" style="text;strokeColor=none;fillColor=none;align=left;verticalAlign=top;spacingLeft=4;spacingRight=4;overflow=hidden;rotatable=0;points=[[0,0.5],[1,0.5]];portConstraint=eastwest;whiteSpace=wrap;html=1;" vertex="1" parent="HqXSGw4q4rn_gHDSRf10-93">
          <mxGeometry y="78" width="140" height="26" as="geometry" />
        </mxCell>
        <mxCell id="HqXSGw4q4rn_gHDSRf10-97" value="Pagar" style="rounded=1;whiteSpace=wrap;html=1;" vertex="1" parent="HqXSGw4q4rn_gHDSRf10-43">
          <mxGeometry x="80" y="230" width="90" height="30" as="geometry" />
        </mxCell>
        <mxCell id="HqXSGw4q4rn_gHDSRf10-49" value="" style="swimlane;startSize=0;" vertex="1" parent="1">
          <mxGeometry x="180" y="780" width="200" height="290" as="geometry" />
        </mxCell>
        <mxCell id="HqXSGw4q4rn_gHDSRf10-88" value="Consulta Faturas" style="swimlane;fontStyle=0;childLayout=stackLayout;horizontal=1;startSize=30;horizontalStack=0;resizeParent=1;resizeParentMax=0;resizeLast=0;collapsible=1;marginBottom=0;whiteSpace=wrap;html=1;" vertex="1" parent="HqXSGw4q4rn_gHDSRf10-49">
          <mxGeometry x="30" y="85" width="140" height="120" as="geometry" />
        </mxCell>
        <mxCell id="HqXSGw4q4rn_gHDSRf10-89" value="Fatura X" style="text;strokeColor=none;fillColor=none;align=left;verticalAlign=middle;spacingLeft=4;spacingRight=4;overflow=hidden;points=[[0,0.5],[1,0.5]];portConstraint=eastwest;rotatable=0;whiteSpace=wrap;html=1;" vertex="1" parent="HqXSGw4q4rn_gHDSRf10-88">
          <mxGeometry y="30" width="140" height="30" as="geometry" />
        </mxCell>
        <mxCell id="HqXSGw4q4rn_gHDSRf10-90" value="Fatura Y" style="text;strokeColor=none;fillColor=none;align=left;verticalAlign=middle;spacingLeft=4;spacingRight=4;overflow=hidden;points=[[0,0.5],[1,0.5]];portConstraint=eastwest;rotatable=0;whiteSpace=wrap;html=1;" vertex="1" parent="HqXSGw4q4rn_gHDSRf10-88">
          <mxGeometry y="60" width="140" height="30" as="geometry" />
        </mxCell>
        <mxCell id="HqXSGw4q4rn_gHDSRf10-91" value="Fatura Z" style="text;strokeColor=none;fillColor=none;align=left;verticalAlign=middle;spacingLeft=4;spacingRight=4;overflow=hidden;points=[[0,0.5],[1,0.5]];portConstraint=eastwest;rotatable=0;whiteSpace=wrap;html=1;" vertex="1" parent="HqXSGw4q4rn_gHDSRf10-88">
          <mxGeometry y="90" width="140" height="30" as="geometry" />
        </mxCell>
        <mxCell id="HqXSGw4q4rn_gHDSRf10-55" value="" style="swimlane;startSize=0;" vertex="1" parent="1">
          <mxGeometry x="414" y="780" width="200" height="290" as="geometry" />
        </mxCell>
        <mxCell id="HqXSGw4q4rn_gHDSRf10-85" value="IP API" style="rounded=0;whiteSpace=wrap;html=1;" vertex="1" parent="HqXSGw4q4rn_gHDSRf10-55">
          <mxGeometry x="15" y="70" width="170" height="40" as="geometry" />
        </mxCell>
        <mxCell id="HqXSGw4q4rn_gHDSRf10-86" value="Save" style="rounded=1;whiteSpace=wrap;html=1;" vertex="1" parent="HqXSGw4q4rn_gHDSRf10-55">
          <mxGeometry x="50" y="170" width="100" height="40" as="geometry" />
        </mxCell>
      </root>
    </mxGraphModel>
  </diagram>
</mxfile>
